<?xml version="1.0" encoding="UTF-8"?>
<svg width="96px" height="72px" viewBox="0 0 96 72" version="1.1" xmlns="http://www.w3.org/2000/svg" xmlns:xlink="http://www.w3.org/1999/xlink">
    <!-- Generator: Sketch 52.6 (67491) - http://www.bohemiancoding.com/sketch -->
    <title>Group 2</title>
    <desc>Created with Sketch.</desc>
    <g id="Page-1" stroke="none" stroke-width="1" fill="none" fill-rule="evenodd">
        <g id="NUXTJS-logo">
            <g id="Group-2">
                <path d="M29.22,68.88 C29.1487531,68.7540066 29.0853007,68.6237621 29.03,68.49 C28.6464358,67.6026339 28.5283363,66.6231028 28.69,65.67 L6,65.67 L39.72,6.33 L50.79,25.79 L54,20.11 L44.35,3.11 C44.08,2.62 42.45,-1.42108547e-14 39.64,-1.42108547e-14 C38.37,-1.42108547e-14 36.55,0.55 35.07,3.15 L0.91,63.21 C0.62,63.73 -0.79,66.46 0.61,68.88 C1.25,69.98 2.61,71.29 5.61,71.29 L34.22,71.29 C31.24,71.29 29.86,70 29.22,68.88 Z" id="Path" fill="#00C58E"></path>
                <path d="M95,63.21 L66.93,13.76 C66.64,13.24 65.02,10.61 62.2,10.61 C60.93,10.61 59.11,11.15 57.63,13.75 L54,20.11 L57.23,25.79 L62.23,16.94 L90,65.67 L79.44,65.67 C79.5751265,66.475576 79.4993329,67.3024161 79.22,68.07 C79.1611711,68.2394661 79.0875542,68.403431 79,68.56 L78.91,68.74 C77.49,71.16 74.42,71.29 73.82,71.29 L90.34,71.29 C90.95,71.29 94.01,71.16 95.43,68.74 C96.06,67.64 96.51,65.79 95,63.21 Z" id="Path" fill="#108775"></path>
                <path d="M78.91,68.74 L79,68.56 C79.0875542,68.403431 79.1611711,68.2394661 79.22,68.07 C79.4993329,67.3024161 79.5751265,66.475576 79.44,65.67 C79.2843649,64.8011819 78.9726684,63.9677324 78.52,63.21 L57.25,25.79 L54,20.11 L50.77,25.79 L29.51,63.21 C29.0972122,63.9767336 28.81981,64.8089404 28.69,65.67 C28.5188958,66.6202147 28.6265638,67.5996461 29,68.49 C29.0553007,68.6237621 29.1187531,68.7540066 29.19,68.88 C29.83,69.98 31.19,71.29 34.19,71.29 L73.79,71.29 C74.42,71.29 77.49,71.16 78.91,68.74 Z M54,31.47 L73.44,65.67 L34.57,65.67 L54,31.47 Z" id="Shape" fill="#2F495E" fill-rule="nonzero"></path>
            </g>
        </g>
    </g>
</svg>