<?xml version="1.0" encoding="utf-8"?>
<!-- Generator: Adobe Illustrator 21.1.0, SVG Export Plug-In . SVG Version: 6.00 Build 0)  -->
<svg version="1.1" id="Calque_1" xmlns="http://www.w3.org/2000/svg" xmlns:xlink="http://www.w3.org/1999/xlink" x="0px" y="0px"
	 viewBox="0 0 432 432" style="enable-background:new 0 0 432 432;" xml:space="preserve">
<style type="text/css">
	.st0{fill:#C14148;}
	.st1{fill:#E28A6B;}
	.st2{fill:#373636;}
	.st3{fill:#3A6A52;}
	.st4{fill:#9B1917;}
	.st5{fill:#B298C8;}
	.st6{fill:#F39EA0;}
	.st7{fill:#C1944E;}
	.st8{fill:#F3B04B;}
	.st9{fill:#A5B449;}
	.st10{fill:#EC6284;}
	.st11{fill:#951B81;}
	.st12{fill:#A3195B;}
	.st13{fill:#9BC66B;}
	.st14{fill:#5FB157;}
	.st15{fill:#FFFFFF;}
	.st16{fill:#3F914D;}
	.st17{fill:#D53B87;}
	.st18{fill:#A6A8AA;}
	.st19{fill:#C8ACA0;}
	.st20{fill:#E6939F;}
	.st21{fill:#7A8D9F;}
	.st22{fill:#939D3C;}
	.st23{fill:#2A9798;}
	.st24{fill:#6595A9;}
	.st25{fill:#3C3C3B;}
</style>
<g>
	<path class="st7" d="M258.7,152.6c-8.4-16.1-18-25-19-7c0.3,11.6,2.7,11-13.2,11.6c-3.9,0.1-6.7,5.4,11.3,11
		c4.1,1.3-3.3,21.4,2.9,23.9c4.5,1.8,11.3-18,15.3-15.8c8.3,5,20.6,12.3,17.7,3.6c-6.1-18.3-11.1-12.3-2.1-20.3
		c1.3-1,4.1-3.1,3.9-4.7C274.6,148.3,261,157.1,258.7,152.6z"/>
	<g>
		<path class="st2" d="M306.3,300c-0.9,0-1.7,0-2.6,0c-0.2-3.8-0.4-7.5-0.6-11.3c0,0,0.1,0,0.1,0c1.7-0.2,2-1.8,3.1-2.7
			c0.7-0.6,0.2-1.6-0.5-1.8c-1-0.3-2-0.7-3-1.2c-0.1-1.6-0.1-3.2-0.2-4.8c0.6,0,1.2,0,1.8-0.1c1.4-0.1,1.4-2.2,0-2.2
			c-0.6,0-1.3,0-1.9,0.1c0-0.7,0-1.4-0.1-2.1c1.1-0.2,2.2-0.7,3.1-1.5c0.5-0.4,0.4-1.1,0-1.6c-0.9-1.1-2-2-3.3-2.8
			c0-1-0.1-2-0.1-3.1c0.8,0,1.5,0,2.3,0c1.4,0,1.4-2.2,0-2.2c-0.8,0-1.6,0-2.3,0c-0.4-15.8-0.6-31.5-0.5-47.3
			c1.6-2.3,2.7-4.6,2.3-6.4c-1-4.6-7.7,1.8-9.3,2.8c-3.6,2.3-7.5,4.3-11.5,5.9c-8.1,3.3-16.9,4.9-25.7,4.9
			c-38.2,0-69.1-30.9-69.1-69.1c0-38.2,30.9-69.1,69.1-69.1c2.6,0,17.8,2.9,14.8-4.5c-0.7-1.8-3.6-2.8-5.2-3.6
			c-4.5-2.5-9.3-4.6-14.1-6.2c-10.2-3.5-20.9-5.3-31.7-5.3c-53.3,0-96.5,43.2-96.5,96.5c0,14.5,3.2,28.3,8.9,40.6
			c-1.3,35.5-1.4,71.1-0.4,106.6c-1.4,0.5-2,2.7-1.5,4.2c0.3,0.9,0.9,1.6,1.7,2c0.1,2.3,0.2,4.6,0.2,6.9c-0.7,0.1-1.5,0.2-2.2,0.3
			c-1.4,0.2-0.8,2.3,0.6,2.1c0.6-0.1,1.1-0.2,1.7-0.3c0.1,1.9,0.1,3.8,0.2,5.7c-1,0.5-1.7,1.6-1.7,2.8c0,1.3,0.9,2.3,2,2.6
			c0.1,1.7,0.2,3.4,0.2,5.1c-0.4,0-0.9,0.1-1.3,0c-1.4-0.1-1.4,2.1,0,2.2c0.5,0,1,0,1.4,0c0,0.9,0.1,1.8,0.1,2.7
			c-1,1.3-2,2.7-2.8,4.2c-0.2,0.4-0.2,1,0.2,1.3c1.4,1.1,3,2.7,4.7,3.4c1.5,0.6,2.3-0.8,3.1-1.8c0.8-1.1,2.4-2.5,1.6-4
			c-0.7-1.4-2.9-2.4-4.2-3.3c-0.1-0.1-0.2-0.1-0.3-0.1c0-0.9-0.1-1.7-0.1-2.6c0.6-0.1,1.1-0.2,1.7-0.4c1.3-0.4,0.8-2.5-0.6-2.1
			c-0.4,0.1-0.8,0.2-1.2,0.3c-0.1-1.6-0.2-3.3-0.2-4.9c1.2-0.5,2-1.8,1.6-3.2c-0.3-0.9-0.9-1.6-1.7-1.9c0-0.1-0.1-0.1-0.1-0.2
			c-0.1-2-0.2-4-0.2-6c0.5-0.1,1.1-0.2,1.6-0.3c1.4-0.2,0.8-2.3-0.6-2.1c-0.4,0.1-0.7,0.1-1.1,0.2c-0.1-2.1-0.1-4.1-0.2-6.2
			c0.4-0.1,0.8-0.3,1.1-0.6c1.7-1.5,0.8-4.2-1-5.3c-0.1-0.1-0.2-0.1-0.4-0.2c-0.8-25.7-0.9-51.4-0.5-77.1
			c0.8,16.9,2.5,33.6,6.1,50.2c1.5,7.1,3.2,17.4,7.2,25.3c-0.7,0.6-1.5,1.2-2.2,1.8c-1.1,0.9,0.5,2.4,1.6,1.6
			c0.6-0.5,1.2-0.9,1.7-1.4c0.1,0.2,0.2,0.4,0.4,0.6c-1.5,0.8-0.8,3-0.1,4.1c0.7,1.3,2,2.5,3.4,2.8c1,0.3,2,0.1,2.7-0.5
			c1.4,0.9,2.9,1.7,4.6,2.2c0,0,0.1,0,0.1,0c0.2,0.7,0.6,1.3,1.1,1.7c1.1,0.9,2.6,0.9,3.6-0.2c0.3-0.3,0.5-0.7,0.6-1
			c0.8-0.1,1.5-0.3,2.2-0.5c0.1,0,0.1,0.1,0.2,0.1c1.5,0.8,3.1,0,4.2-1.1c1-1,2-2.2,1.9-3.6c0.2-0.3,0.4-0.6,0.7-0.9
			c0.6,0.6,1.2,1.1,1.8,1.7c1,1,2.5-0.5,1.6-1.6c-0.7-0.7-1.4-1.4-2.1-2c2.9-4.7,4.7-10.5,6.3-14.9c4.6-12.9,7.8-26.2,9.7-39.8
			c0.1,1.3,0.3,2.6,0.4,4c0.1,15.8,0.3,31.5,0.4,47.3c-0.2,0-0.4,0.1-0.7,0.1c-1.4,0.2-1.4,2.4,0,2.2c0.2,0,0.5-0.1,0.7-0.1
			c0,0.7,0,1.4,0,2.1c0,0-0.1,0.1-0.1,0.1c-0.5,0.8-1.1,1.6-1.6,2.4c-0.4,0.6-1,1.2-1.1,1.9c-0.3,1.4,0.8,2,1.9,2.6
			c0.3,0.2,0.7,0.4,1,0.6c0,1.3,0,2.7,0,4c-0.4,0.1-0.7,0.1-1.1,0.2c-1.4,0.2-0.8,2.3,0.6,2.1c0.2,0,0.4-0.1,0.5-0.1
			c0.1,10.8,0.2,21.6,0.3,32.5c-0.8,1.1-1.6,2.2-2.4,3.3c-0.5,0.7-0.8,1.4-0.3,2.3c0.5,0.9,1.6,1.9,2.4,2.6c0.6,0.5,1.1,0.8,1.9,0.5
			c1.5-0.5,3.2-2.4,3.6-4c0.2-0.8,0.2-1.7-0.2-2.4c-0.2-0.4-0.5-0.8-0.8-1.1c-0.3-0.3-1-0.5-1.1-1c-0.1-0.4-0.5-0.6-0.8-0.7
			c-0.1-10.8-0.2-21.6-0.3-32.4c1.3-0.2,2.6-0.4,3.9-0.6c1.4-0.2,0.8-2.3-0.6-2.1c-1.1,0.2-2.2,0.4-3.3,0.5c0-1,0-2,0-3
			c0.1,0,0.3-0.1,0.4-0.1c0.5-0.2,0.8-0.8,1.1-1.2c0.6-0.8,1.1-1.7,1.7-2.6c0.3-0.4,0.1-1-0.2-1.3c-1-1.1-1.9-2.1-2.9-3.2
			c-0.1-0.1-0.2-0.1-0.3-0.2c0-0.7,0-1.3,0-2c0.6-0.1,1.2-0.1,1.8-0.2c1.4-0.2,1.4-2.4,0-2.2c-0.6,0.1-1.2,0.2-1.8,0.2
			c-0.1-10-0.2-19.9-0.3-29.9c1.4,8.3,3.3,16.4,5.6,24.5c1.4,4.8,3.6,12,7.1,18c-0.6,0.5-1.2,1.1-1.8,1.7c-0.9,1.1,0.6,2.6,1.6,1.6
			c0.4-0.5,0.9-0.9,1.4-1.4c0.2,0.3,0.4,0.7,0.7,1c-0.4,0.9-0.5,1.9-0.1,2.8c0.5,1.4,1.7,2.3,3,3c1,0.6,2.4,1.3,3.3,0.3
			c1.5,1,3.2,1.7,5,2c1,2.1,4.1,2.9,5.8,1.2c0.5-0.5,0.8-1.1,1-1.8c1.4-0.5,2.8-1.3,4-2.2c0.9,0.4,2.1,0.4,3.1-0.3
			c1.4-0.9,4-4,2.8-5.8c0.1-0.1,0.1-0.2,0.2-0.3c0.5,0.4,1,0.8,1.5,1.2c1.1,0.9,2.7-0.7,1.6-1.6c-0.6-0.5-1.2-0.9-1.8-1.4
			c1.1-1.5,2-3,2.9-4.4c4.3-6.7,7.6-14.1,9.9-21.7c2.8-9.1,4.4-18.6,5.3-28.1c0.1,13.3,0.4,26.6,0.8,40c0,0,0,0,0,0
			c-1.2,1.9-1.4,4.3-0.4,6.3c0.2,0.4,0.5,0.7,0.8,1c0,0.9,0.1,1.8,0.1,2.7c-0.4,0-0.8,0-1.1,0c-1.4,0-1.4,2.2,0,2.2
			c0.4,0,0.8,0,1.2,0c0,0.4,0,0.8,0,1.2c-1,1.2-1.6,2.8-1.5,4.4c0.1,1.3,0.6,3.1,1.9,3.7c0.1,1.5,0.1,2.9,0.2,4.4
			c-0.3,0-0.5,0.1-0.8,0.1c-1.4,0.2-0.8,2.3,0.6,2.1c0.1,0,0.2,0,0.4-0.1c0.2,3.5,0.4,7,0.6,10.5c-1.5,0.6-2.5,2.1-1.7,4
			c1.3,3.1,6.2,2.3,6.2-1.1c0-1.4-0.9-2.7-2.3-2.9c-0.2-3.6-0.4-7.2-0.6-10.8c0.9-0.1,1.8-0.3,2.7-0.4c1.4-0.2,0.8-2.3-0.6-2.1
			c-0.7,0.1-1.5,0.2-2.2,0.4c-0.1-1.4-0.1-2.8-0.2-4.2c1.2-0.7,1.8-2.2,1.8-3.5c0-1.6-0.7-3-1.8-4.1c0.2-0.5,0-0.9-0.4-1.2
			c0-0.1,0-0.2,0-0.3c0.7,0,1.4,0,2.1,0c1.4,0,1.4-2.2,0-2.2c-0.7,0-1.4,0-2.1,0c0-0.7-0.1-1.4-0.1-2.1c0.6-0.2,1.2-0.6,1.6-1.4
			c0.9-1.9-0.1-4.8-1.7-6c-0.1,0-0.1-0.1-0.2-0.1c-0.6-15.9-0.8-31.7-0.8-47.6c1.4,6.9,3.7,13.7,7.1,20c1.1,2,2.6,4.4,4.4,6.6
			c0.1,1.7,0.8,3.3,2.3,4.3c1,0.7,2.5,1.2,3.6,0.8c0.1,0.1,0.3,0.2,0.4,0.2c-0.1,0.5-0.2,0.9-0.3,1.4c-0.3,1.4,1.8,2,2.1,0.6
			c0.1-0.4,0.2-0.8,0.2-1.1c0.3,0.1,0.7,0.2,1,0.2c0,0,0,0,0,0.1c0.2,1.4,1,2.8,2.6,2.8c2.3,0,3.7-2.2,3.4-4.2
			c0.2-0.1,0.4-0.2,0.6-0.3c0.1-0.1,0.2-0.2,0.3-0.2c0.3,0.4,0.6,0.8,1,1.2c0.9,1.1,2.4-0.5,1.6-1.6c-0.3-0.4-0.6-0.7-0.9-1.1
			c0.1-0.1,0.3-0.3,0.4-0.4c1.2,0.3,2.7-0.3,3.4-1.4c0.9-1.3,1.5-4.5,0.2-5.9c0.1-0.2,0.1-0.3,0.2-0.5c2.2-7,3.6-14.4,4.7-21.7
			c2-13,2.5-26.2,1.7-39.4c0.2-0.3,0.4-0.5,0.6-0.8c-0.1,14.8,0.1,29.6,0.6,44.4c-0.2,0-0.4,0-0.7,0c-1.4,0-1.4,2.2,0,2.2
			c0.3,0,0.5,0,0.8,0c0,1.1,0.1,2.1,0.1,3.2c0,0.1-0.1,0.1-0.1,0.2c-0.8,0.6-1.7,1.2-2.5,1.8c-0.6,0.4-0.7,1.1-0.2,1.7
			c0.8,1,1.9,1.6,3,1.8c0,0.8,0.1,1.5,0.1,2.3c-0.3,0-0.6,0-0.9,0c-1.4,0.1-1.4,2.2,0,2.2c0.3,0,0.6,0,0.9,0
			c0.1,1.6,0.1,3.2,0.2,4.8c-0.6,0.6-1.1,1.1-1.7,1.7c-0.6,0.5-0.3,1.3,0.2,1.7c0.5,0.4,1.1,0.9,1.7,1.4c0.2,4.1,0.4,8.1,0.6,12.2
			c-0.2,0-0.5,0-0.7,0c-1.4,0-1.4,2.2,0,2.2c0.3,0,0.5,0,0.8,0c0.1,1.1,0.1,2.2,0.2,3.3c0,0,0,0,0,0c-0.8,0.3-1.6,0.8-1.9,1.6
			c-0.7,1.4,0.2,3,1.6,3.5c2.7,0.9,7.3-2.8,4.1-5.1c-0.5-0.4-1-0.5-1.6-0.4c-0.1-1-0.1-1.9-0.1-2.9c0.8,0,1.7,0,2.5,0
			C307.7,302.2,307.7,300,306.3,300z M263.7,236.9c1.2-2.3,4.4-6.4,7.7-7.8c4.8-5,16.1-4.7,19.7-10c0.8-1.2,2.7-0.1,1.9,1.1
			c-2.6,3.8-6.1,4.8-10.3,6.1c-1.8,0.6-4.9,1.4-7.4,2.9c0.7,0.4,1.3,0.9,1.9,1.7c1.8,2.6,0.2,7-3.1,7.4c-3,0.3-5.2-2.5-4.7-5.3
			c0-0.1,0.1-0.2,0.1-0.4c-1.7,1.5-3.1,3.8-3.9,5.5C265,239.2,263.1,238.1,263.7,236.9z M195,189.3c1.5,1.4,2.7,4.6,1.1,6.3
			c-1.5,1.5-3.8,2.1-5.1,0.2c-0.8-1.1,1.1-2.2,1.9-1.1c0.5,0.1,1-0.1,1.3-0.4c0.5-0.6,0.5-1.2,0.2-1.8c-0.5-1.7-2-2.4-3.7-2.5
			c-2.9-0.1-5.7,1.5-5.6,4.6c6.1,3.3,11.3,9.9,12.9,16.1c3.5,1.8,5.7,5.3,6.3,9.3c0.8,6.2-1.1,13.1,5.5,16.7
			c3.4,1.9,11.2,3.8,15.7,1.8c-0.1,0-0.2-0.1-0.3-0.1c-4.4-1.4-9.8-4.8-9.1-10.2c0.4-2.9,2.7-5.3,5.7-5.4c4.6-0.1,8.5,5.2,9.1,9.3
			c0.3,2.1,0,3.9-0.8,5.2c3.8,0.6,7.8,0.5,11.3,0c0.6-2.5,0.8-5.2-0.6-7.5c-0.9-1.4-2.7-2.8-4.2-1.4c-0.6,0.5-1,1.4-0.9,2.1
			c0.1,0.9,1.2,2.2,2.1,1.3c1-1,2.6,0.6,1.6,1.6c-1.8,1.7-4.5,1.1-5.5-1.2c-0.9-2.1-0.1-5,2-6.2c2.3-1.4,4.9,0.1,6.4,2.1
			c1.9,2.6,2.1,5.7,1.5,8.7c5.7-1.3,10.6-4.9,16.4-5.7c1.4-0.2,2,1.9,0.6,2.1c-6.7,0.9-12.3,5.4-19.2,6.2c-4.2,0.5-8.8,0.5-13.1-0.3
			c-6.2,5-21.9,1.1-25-6.1c-2.3-5.2,0.3-11.5-2.3-16.6c-0.6-1.1-1.5-2.1-2.6-3c0.2,3.3-0.9,6.3-4.3,7.7c-3.8,1.6-7.9,0-7.9-4.5
			c0-4.6,4.2-7.9,8.6-7.2c0.2,0,0.4,0.1,0.7,0.2c-1.4-3.3-3.8-6.5-5.3-8.2c-5.1-5.7-13.1-9.8-20-4.6c-1.1,0.8-2.2-1.1-1.1-1.9
			c4.4-3.3,9.3-3.4,13.8-1.6C183.7,188.5,191,185.6,195,189.3z M247,245.8c2,2.4-0.2,6.5-3.2,6.8c-2.9,0.2-3.5-3-2.6-5.2
			c0.3-0.6,0.6-1.1,1-1.6c-3.3-0.3-8.2,3.1-9.9,4.5c-1.1,0.9-2.6-0.7-1.6-1.6c2.9-2.4,9.3-6.1,13.7-4.6c0.2-0.1,0.4-0.2,0.6-0.3
			c3-1.3,7.5,0,10.4-1.2c0.4-0.2,0.8-0.4,1.1-0.7c1.1-0.9,2.6,0.7,1.6,1.6c-0.8,0.7-1.7,1.1-2.7,1.3c-2.8,0.7-6-0.1-8.7,0.7
			C246.8,245.6,246.9,245.7,247,245.8z M194.1,239.3c-0.1-0.1-0.2-0.2-0.3-0.3c-0.4-0.4-0.9-0.8-1.5-1.3c-0.2,0.4-0.4,0.7-0.7,1.1
			c-2.6,3.5-7.4,5.7-9.4,1.3c-1-2.1,0.1-4.6,1.9-5.9c2.2-1.5,4.7-1,7,0.1c-0.2-1.3-0.7-2.5-1.6-3.6c-5.1-6.6-13.1-2.2-17.6,2.6
			c-1,1-2.5-0.5-1.6-1.6c3.8-4.1,9-7.8,14.9-6.3c3.8,1,7.3,4.2,8,8.1c0.1,0.6,0.1,1.3-0.1,2c0.1,0,0.1,0.1,0.2,0.1
			c6.6,4.8,10.3,14.7,19.6,15c2.2,0.1,5.4-0.6,6.8-2.7c2.3-3.4-2.5-2-4.3-1.3c-1.3,0.5-1.9-1.6-0.6-2.1c3.2-1.1,10.1-1.5,7.3,3.9
			c-0.6,1.2-1.5,2.1-2.6,2.8c-0.7,0.4-1.4,0.8-2.2,1c-3.3,1-7.2,0.5-10-0.8C201.5,248.9,198.5,243.5,194.1,239.3z M189.5,123
			c-1.5,6.2-4.9,15.2-10.9,18.9c0,0.7-0.1,1.3-0.2,2c-1,4.5-3.3,8.8-5.6,12.7c2.3,1.8,5.3,2.1,7.7,0.4c1.1-0.8,2.1-1.9,2.4-3.3
			c0.2-0.7,0.2-1.8-0.2-2.4c-0.3-0.3-0.6-0.6-0.8-0.9c-0.7,0.2-1.4,0.4-2.1,0.6c-0.7,1.2-2.6,0.1-1.9-1.1c1.2-2,3.7-2.5,5.6-1.1
			c1.9,1.5,2.1,4.2,1.3,6.3c-2.2,5.4-8.7,6.4-13.1,3.3c-2.1,3.4-4.4,6.5-4.8,10.7c-0.5,6,2.9,11.6,8.9,13.1c2,0.5,4.9,0.7,6.4-1
			c0.8-0.8,1.1-2,1-3.1c-0.4-6-8.2-4-6.1,0.1c0.6,1.3-1.3,2.4-1.9,1.1c-2-4,1.3-8.2,5.8-7.3c3.9,0.8,5.5,6.1,3.8,9.4
			c-3.7,6.9-14.3,2-17.6-2.7c-1.4-1.9-2.1-3.9-2.4-5.7c-2.7-0.7-6,0.1-7,3c-0.5,1.3-0.4,2.7,0.2,3.9c0.3,0.6,0.7,1.2,1.3,1.6
			c0.4,0.3,0.8,0.5,1.4,0.5c1.2-0.5,1.7-1.3,1.2-2.3c-1.4-0.3-0.8-2.4,0.6-2.1c3.1,0.7,1.9,5.3-0.4,6.4c-2.6,1.1-5.2-1-6.2-3.2
			c-2.7-5.9,3.1-11,8.7-10c0.2-5.4,3.6-10.6,6.5-15.6c1.9-3.4,4.8-8,5.5-12.4c-2,0.7-4.3,0.9-6.9,0.1c-3.7-1.1-8.4-6.1-3.2-8.7
			c5.9-3,10.9,0.1,12,5.1c5.4-3.6,7.6-11.2,9-17C187.7,121,189.8,121.6,189.5,123z M246.4,71c2.1,1.5,1.1,4.5-0.2,6.7
			c0.6,0.1,1.3,0.1,1.8,0.1c2.2-0.1,4.4-0.7,6.5-1c2.5-0.3,5.1-0.5,6.9,1.5c0.9,1-0.6,2.6-1.6,1.6c-3.4-3.8-10.7,1.6-15.3-0.1
			c-5.3,5.2-13.7,4.4-20.3,2.8c-1.4-0.3-0.8-2.4,0.6-2.1c5.3,1.3,11.8,2.2,16.7-1c0.4-0.3,0.8-0.6,1.1-0.9c-0.2-0.2-0.4-0.4-0.6-0.7
			C240.4,75,242.6,68.4,246.4,71z M180.9,88.4c6.1,4.4-5.7,12.2-6.9,7.1c-0.3-1.4,1.8-2,2.1-0.6c-0.2-0.8,6-1.5,3.9-4.5
			c-0.6-0.8-2.3-1-3.2-1.1c-2.9-0.2-6.1,1.1-7.5,3.8c-2,4,1.2,8.3,5.2,9.2c2.6,0.6,5.3,0,7.7-1.1c3.6-1.6,6.7-4.4,9.4-7.2
			c0.4-0.4,0.8-0.9,1.3-1.4c-4-4.4-8.4-14.2-1.2-17.5c6.8-3.1,10.4,8.4,3.4,9.1c-1.4,0.1-1.4-2,0-2.2c2.7-2.8,2-4.5-2-5.1
			c-1.3,0.5-2.2,1.4-2.7,2.8c-0.6,1.6-0.3,3.3,0.1,4.8c0.7,2.5,2.1,4.6,3.8,6.4c3.1-3.6,7-8,11.2-9.3c0.6-1.6,1.6-3,2.6-4.3
			c6.6-7.9,19-11.6,27.9-5.5c1.2,0.8,0.1,2.7-1.1,1.9c-7.3-5-16.8-2.7-23.1,2.9c-1.4,1.2-2.9,2.8-3.9,4.6c1.4,0,2.8,0.4,4.2,1.4
			c3,2,5.8,10.2,0.1,10.4c-3,0.1-6.3-3.1-7.2-5.8c-0.3-1-0.4-1.9-0.3-2.9c-5.1,2.2-8.3,7.7-12.1,11.5c-3.9,4-8.9,8-14.6,8.6
			c-4.8,0.5-10.5-1.8-11.5-7.1C165.3,90.4,174.7,83.9,180.9,88.4z M141.7,118c1.8-6.3,7.7-6.4,13.2-5.2c-1.1-2.8-1.7-5.8-1.3-8.8
			c0.3-2.5,1.6-5.9,4.5-6.3c5.3-0.8,7.5,9.9,1.7,11.2c-1.4,0.3-2-1.8-0.6-2.1c3.5-0.8,1.5-7.5-1.3-6.7c-1.6,0.4-2,3.1-2.2,4.5
			c-0.4,3.1,0.4,6.2,1.8,9c0.7,0.2,1.4,0.4,2,0.6c1.3,0.4,3.7,1.4,6.1,2.1c0.3-1,0.8-2.1,1.6-3.2c2.9-4.2,8.5-3.7,6.9,2.5
			c-0.8,3.1-3.6,3.6-6.7,3.2c0,2.2,1.4,3.4,4.1,3.5c4.5,0.3,9.1-1.7,11.5-5.4c2.9-4.5,2.8-10.4,6.5-14.5c2.5-2.8,7.6-4.9,10.5-1.3
			c2.8,3.6-0.8,6.9-3.9,8.5c-1.3,0.6-2.4-1.3-1.1-1.9c1.4-0.5,2.6-1.4,3.5-2.6c-0.3-1.1-0.7-2.2-1-3.3c-1.1-0.8-3.6-0.1-4.5,0.5
			c-2.1,1.1-3.4,3.7-4.2,5.8c-1,2.5-1.5,5.1-2.6,7.6c-2.5,5.4-7,8.4-13,8.8c-5.2,0.4-8-2.4-7.9-6.1c-2.5-0.6-4.9-1.6-6.4-2
			c-3.6-1.1-9.2-3.2-12.8-1c-2.4,1.4-2.9,4.5-2.9,7.1c0.1,7.1,7.5,6,7.1-0.4c-0.1-1.4,2.1-1.4,2.2,0c0.3,4-2.3,8.9-7.1,7.7
			C140.7,128.4,140.6,121.8,141.7,118z M138.8,166.5c-3.6-1.5-6.4-4.7-6.1-8.9c0.3-3.6,4-7.3,7.8-5.7c4.5,2,3.4,8.1,1.5,13.2
			c2.8,0.6,5.7,0,7.4-2.3c2.8-4,0-12,0.1-16.5c0.2-6.3,2.8-11.5,7.6-15.7c1.1-0.9,2.6,0.6,1.6,1.6c-4.7,4.2-6.4,8.9-6.7,14.3
			c5.4-3.3,12.8,0.5,12.3,7.4c-0.2,3-2.4,6.2-5.7,5c-3-1.1-3.6-4.5-1.7-6.9c0.9-1.1,2.4,0.5,1.6,1.6c-1.5,1.9,1,4.7,3,2.6
			c0.5-0.5,0.7-1.6,0.7-2.3c0.1-1.4-0.2-2.9-1-4.1c-2-3-6.3-3.1-8.8-0.8c-0.1,0.1-0.2,0.1-0.3,0.2c0,1.4,0.1,2.9,0.3,4.4
			c0.4,3.8,1.2,8.5-1.8,11.5c-2.4,2.4-5.9,3-9.2,2.3c-0.7,1.6-1.4,3.1-1.8,4c-0.8,1.6-1.7,3.4-2.6,5.4c-1.7,4-2.9,8.4-0.2,11.7
			c0.5,0.6,1.2,1.2,2,1.7c4.8,3,10.5,0.5,12.3-4.6c0.5-1.3,2.6-0.8,2.1,0.6c-1.1,3.2-3.4,5.5-6.2,6.7c2.3,1.3,4.1,3.2,5,5.5
			c0.1,0,0.3,0,0.4,0c4.2,0.8,6.5,4.1,8.2,7.7c2.2,4.6,3.6,12.3,9.3,13.9c6.5,1.8,11.3-6.9,5.9-10.8c-2.1-1.5-7.9-2-6.7,2.3
			c0.4,1.4-1.7,1.9-2.1,0.6c-1.9-6.3,6.3-7.4,10.3-4.5c7.1,5.2,1.3,16.1-6.9,14.8c-2.4-0.4-4.1-1.4-5.5-2.9
			c-2.9,0.3-5.9,2.2-5.7,5.5c0.3,4.2,6.9,4.5,6.1,0.2c-0.3-1.4,1.8-2,2.1-0.6c1.1,5.5-6,8.1-9.2,3.8c-1.6-2.2-1.5-5.2,0-7.4
			c1.2-1.9,3.2-2.9,5.3-3.4c-2.9-4.6-3.8-11.4-7.7-15c-0.9-0.8-2-1.4-3.1-1.7c0.3,2.2-0.2,4.5-1.6,6.7c-3.3,5.2-11,1.9-8.7-4.1
			c1.1-2.9,4.2-4.7,7.2-5.1c-1.3-2.3-3.8-4.1-6.7-4.7c-0.1,0-0.1,0-0.1-0.1c-2.1,0-4.2-0.8-6-2.2c-0.4-0.3-0.7-0.6-1.1-1
			c-0.4-0.4-0.8-0.9-1.1-1.3C129.8,182.3,135.4,174.1,138.8,166.5z M180.2,295.8c-1.4,3.9-3.1,9.6-5.8,14.1c-0.5-0.4-1-0.9-1.5-1.3
			c-1.1-0.9-2.7,0.7-1.6,1.6c0.6,0.5,1.2,1,1.8,1.6c-0.1,0.1-0.2,0.2-0.2,0.3c-0.4-0.3-0.8-0.4-1.2-0.2c-0.4,0-0.9,0.1-1.3,0.3
			c-1,0.6-2.2,1.7-2.8,2.8c0,0,0,0,0,0c-0.5,0.4-0.7,1-0.7,1.6c-0.4,0.1-0.8,0.2-1.2,0.2c-0.1-0.3-0.2-0.5-0.3-0.8
			c-0.6-1.3-1.9-2.3-3.4-1.7c-0.1,0-0.1,0.1-0.2,0.2c-0.8,0.3-1.3,1-1.5,1.7c-1.3-0.5-2.5-1.1-3.6-1.9c0-1.4-1.1-2.5-2.3-3.1
			c-0.2-0.1-0.4-0.2-0.6-0.3c-0.3-0.2-0.7-0.4-1-0.6c-0.6-0.8-1.1-1.6-1.6-2.5c0.2-0.2,0.4-0.3,0.6-0.5c1.1-0.9-0.5-2.4-1.6-1.6
			c0,0,0,0,0,0c-2.2-4.7-3.4-10-4.6-14.5c-7.2-27.3-8.9-55.5-9-83.7c4.2,7.7,9.4,14.7,15.5,20.9c0,8.9,0,17.8,0,26.7
			c-0.5,0-1.1,0-1.6,0c-1.4-0.1-1.4,2.1,0,2.2c0.6,0,1.1,0,1.6,0c0,1.5,0,2.9,0,4.4c-0.5,0-1.1,0-1.6,0c-1.4,0-1.4,2.2,0,2.2
			c0.5,0,1.1,0,1.6,0c0,1.4,0,2.7,0,4.1c-0.4,0-0.7,0.1-1.1,0.1c-1.4,0.1-1.4,2.3,0,2.2c0.4,0,0.7-0.1,1.1-0.1c0,3.9,0,7.8,0,11.7
			c-1.2,0.8-1.9,2.3-0.7,3.8c1.8,2.3,5.4,0.7,4.9-2.2c-0.1-0.6-0.4-1.1-0.9-1.5c-0.1-0.2-0.2-0.3-0.5-0.4c-0.2-0.1-0.4-0.1-0.6-0.2
			c0-3.8,0-7.7,0-11.5c0.4,0,0.7-0.1,1.1-0.1c1.4-0.1,1.4-2.3,0-2.2c-0.4,0-0.7,0.1-1.1,0.1c0-1.3,0-2.6,0-3.9c0.3,0,0.5,0,0.8,0
			c1.4,0,1.4-2.2,0-2.2c-0.3,0-0.5,0-0.8,0c0-1.5,0-3.1,0-4.6c0.4-0.1,0.7-0.1,1.1-0.1c1.4-0.3,0.8-2.4-0.6-2.1
			c-0.2,0-0.3,0-0.5,0.1c0-8.1,0-16.2,0-24.3c10.1,9.7,22.4,17.3,36,21.9C188.4,267.4,185.1,281.8,180.2,295.8z M251.2,286.2
			c-2.6,11.2-7,23.4-14.3,32.8c-0.1-0.1-0.3-0.2-0.4-0.3c-1.1-0.9-2.7,0.7-1.6,1.6c0.2,0.2,0.4,0.3,0.6,0.5c0,0,0,0,0,0
			c-0.1,0-0.2,0-0.4,0c-2.4,0.5-4.8,2.3-5.4,4.7c-0.1,0.4-0.1,0.8-0.1,1.1c-0.9,0.7-1.9,1.2-2.8,1.5c-0.3-0.7-0.8-1.2-1.6-1.6
			c-0.3-0.1-0.7-0.2-1-0.2c-0.2-0.1-0.4-0.2-0.7-0.2c-1.5,0.1-2.7,1.1-3.3,2.3c-1.4-0.4-2.7-1-3.9-1.8c0.4-1.9-1.7-4.5-3.3-5.1
			c-0.8-0.3-1.5-0.3-2.1,0c-0.2-0.2-0.4-0.5-0.6-0.7c0.4-0.2,0.7-0.5,1.1-0.7c1.2-0.7,0.1-2.6-1.1-1.9c-0.4,0.2-0.8,0.6-1.2,0.8
			c-0.6-0.9-1.1-1.9-1.6-2.9c-3.4-7-5.3-14.9-7.2-22.4c-2.7-10.8-4.5-21.7-5.7-32.7c0-2.2,0-4.5-0.1-6.7c7.2,2.1,14.8,3.3,22.7,3.7
			c-0.1,3.5-0.1,7-0.1,10.5c-0.1,0.1-0.2,0.3-0.2,0.5c-0.2,1.3-1.8,1.9-1.7,3.4c0,0.7,0.4,1.3,0.9,1.8c0.3,0.3,0.7,0.5,1.1,0.7
			c0,0.5,0,1,0,1.6c-0.4,0-0.7,0-1.1,0c-1.4,0-1.4,2.2,0,2.2c0.4,0,0.7,0,1.1,0c0,0.4,0,0.8,0,1.3c-0.7,0.8-1.4,1.7-2.1,2.5
			c-0.4,0.5-0.4,1.1,0,1.6c0.5,0.6,1.3,1.6,2.2,2.1c0,0.9,0,1.9,0,2.8c-0.5,0.1-1,0.1-1.5,0.2c-1.4,0.2-0.8,2.3,0.6,2.1
			c0.3,0,0.6-0.1,0.9-0.1c0.1,5.2,0.2,10.4,0.4,15.6c-1.2,0.3-2.2,1.5-1.8,2.9c0.5,2.3,3.5,2.8,4.9,1c0.7-0.8,0.8-2,0.3-3
			c-0.3-0.5-0.7-0.9-1.3-1.1c-0.2-5.2-0.3-10.5-0.4-15.7c0.4-0.1,0.8-0.1,1.2-0.2c1.4-0.2,0.8-2.3-0.6-2.1c-0.2,0-0.5,0.1-0.7,0.1
			c0-0.9,0-1.7,0-2.6c0.3-0.2,0.5-0.5,0.7-0.8c0.6-0.8,1.2-1.5,1.8-2.3c0.4-0.5,0.5-1.1,0-1.6c-0.7-0.7-1.5-1.3-2.4-1.7
			c-0.1,0-0.2,0-0.2-0.1c0-0.1-0.1-0.1-0.1-0.1c0-0.2,0-0.5,0-0.7c0.8,0,1.7,0,2.5,0c1.4,0,1.4-2.2,0-2.2c-0.8,0-1.7,0-2.5,0
			c0-0.2,0-0.5,0-0.7c0.2,0,0.3,0,0.5-0.1c1.5-0.7,2.4-2.2,2.2-3.9c-0.2-1.6-1.3-2.5-2.7-2.9c0-3.6,0.1-7.2,0.1-10.8
			c0.6,0,1.2,0,1.8,0c11.6,0,23.3-2.1,34.1-6.2C254.9,263.2,253.9,274.8,251.2,286.2z M290,280c-0.4,0.1-0.8,0.3-1.2,0.6
			c-0.3,0.2-0.4,0.5-0.6,0.8c-1.1,1.3-2,3.2-1.5,4.8c0,0.1-0.1,0.1-0.1,0.2c-0.2-0.2-0.3-0.4-0.5-0.6c-0.9-1.1-2.4,0.5-1.6,1.6
			c0.2,0.2,0.3,0.4,0.5,0.6c-0.2,0.1-0.3,0.2-0.5,0.4c-0.1-0.1-0.1-0.1-0.2-0.2c-0.4-0.3-0.9-0.4-1.3-0.5c-0.2-0.7-1.1-1.3-1.8-0.5
			c-0.6,0.7-1,1.4-1.3,2.3c-0.3,0-0.5-0.1-0.8-0.2c0.1-0.6,0.2-1.2,0.4-1.8c0.3-1.4-1.8-2-2.1-0.6c0,0.1,0,0.2-0.1,0.3
			c-0.5-1.5-1.8-2.8-3.2-3c-0.7-0.4-1.5-0.7-2.3-0.9c-0.2,0-0.3,0-0.5,0c-2.1-2.8-3.7-6-5.1-8.9c-3.7-7.8-5.7-16.1-6.4-24.6
			c8.9-3.9,17.1-9.1,24.4-15.4c4.2-3.6,8.1-7.6,11.6-11.9c0.2-0.3,0.5-0.6,0.8-1C297.7,241,296.2,261.6,290,280z"/>
		<path class="st2" d="M189.9,213.2c-3.4,3.6,0.1,8.6,4.4,5.5c2.2-1.5,2.5-3.9,2-6.5C194.1,211.4,191.6,211.4,189.9,213.2z"/>
		<path class="st2" d="M212.9,90.8c1.4-1.1-0.1-4.2-0.9-5.1c-1.3-1.6-3.1-2.1-5-1.8c-0.1,0.4-0.1,0.7-0.1,1.1
			C206.9,86.9,210.3,92.9,212.9,90.8z"/>
		<path class="st2" d="M141.3,158.3c0.1-3.5-2.7-6.7-5.5-3c-2.7,3.6,0.1,7.3,4,9C140.6,162.3,141.2,160.2,141.3,158.3z"/>
		<path class="st2" d="M171.3,116.1c1.4-1.1,1.7-4.5-0.6-3.6c-1.2,0.5-2.2,2.7-2.7,4C169.3,116.7,170.5,116.7,171.3,116.1z"/>
		<path class="st2" d="M186.5,235.6c-1.3,0.3-3.1,2-2.4,3.6c1.2,2.3,5.1-0.1,6-1.4c0.3-0.4,0.4-0.7,0.6-1.1
			C189.4,235.8,187.9,235.3,186.5,235.6z"/>
		<path class="st2" d="M228.6,234.9c0.9-3.4-2.2-9.3-6-9.7c-2.3-0.3-4.2,1.3-4.4,3.7c-0.2,3,2.4,5.2,4.8,6.5
			c1.4,0.7,2.9,1.3,4.5,1.7C228,236.4,228.4,235.7,228.6,234.9z"/>
		<path class="st2" d="M243,249.5c0.7,1.9,3.5-0.3,1.4-2.6C243.7,247.5,242.6,248.6,243,249.5z"/>
		<path class="st2" d="M166.4,138.1c0.7,3.4,7.1,3.4,9.4,2.6c0.3-0.1,0.6-0.2,0.9-0.4c0-0.2,0-0.4,0-0.6
			C175.9,135,165.6,134.3,166.4,138.1z"/>
		<path class="st2" d="M244.2,76.8c0.8-1.2,1.2-2.5,0.9-3.9c-0.1-0.2-0.3-0.2-0.6,0c-1.2,0.6-1.4,1.8-0.5,3.7
			C244.1,76.7,244.2,76.7,244.2,76.8z"/>
		<path class="st2" d="M275.2,235.2c1.8-2.1-0.4-4-2.5-4c-0.5,0.6-0.8,1.2-1,1.8C271.2,235.2,273.5,237.2,275.2,235.2z"/>
		<path class="st2" d="M144.7,207.1c1.8,1.8,3.6,0.3,4.6-1.5c1-1.8,1.2-3.6,0.9-5.3c-0.8,0-1.7,0.2-2.5,0.6
			C145.7,201.8,142.3,204.8,144.7,207.1z"/>
	</g>
</g>
</svg>
