<?xml version="1.0" encoding="utf-8"?>
<!-- Generator: Adobe Illustrator 18.0.0, SVG Export Plug-In . SVG Version: 6.00 Build 0)  -->
<!DOCTYPE svg PUBLIC "-//W3C//DTD SVG 1.1//EN" "http://www.w3.org/Graphics/SVG/1.1/DTD/svg11.dtd">
<svg version="1.1" id="Layer_1" xmlns="http://www.w3.org/2000/svg" xmlns:xlink="http://www.w3.org/1999/xlink" x="0px" y="0px"
	 viewBox="0 0 750 750" enable-background="new 0 0 750 750" xml:space="preserve">
<g>
	<path fill="#EF9DBA" d="M476.7,441.4c0.5,3.1-4.3,6.5-10.8,7.6c-6.5,1.1-12.1-0.6-12.7-3.7c-0.5-3.1,4.3-6.5,10.8-7.6
		C470.5,436.6,476.2,438.2,476.7,441.4z M369.8,433.2c-5.7-1.5-11-0.6-11.7,2.2c-0.7,2.8,3.3,6.2,9,7.8c5.7,1.5,11,0.6,11.7-2.2
		C379.5,438.2,375.5,434.7,369.8,433.2z"/>
	<path fill="#BBDEB2" d="M395.5,507.7c3-5.3,5.6-10.9,7.5-16.9c3,0.8,6,1.5,9.1,2c0.7,3.4,2.3,6.8,5.1,8.9
		c4.8,3.8,11.3,1.7,16.6-2.5c1.1-0.9,2.7-0.1,2.6,1.3c-0.1,7,0.1,13.1,0.6,18.7C424.9,518,411.5,514.3,395.5,507.7z"/>
	<path fill="#B28D70" d="M528.5,407.6c-5-3.2-11.5-3.8-17.6-1.7c-5.7,2-10,6.2-11.7,11.4c-0.7,2.1,0.4,4.3,2.5,5
		c2.1,0.7,4.3-0.4,5-2.5c1-2.9,3.4-5.2,6.8-6.4c3.7-1.3,7.8-1,10.6,0.9c6,3.8,7.9,13.2,4,19.7c-4,6.6-16.7,13.8-24.2,12
		c-1.5-0.4-3.1,0.2-4,1.4c-21.7,27.6-60.6,40.4-94.4,31.1c-22.7-6.2-42.5-21.7-53-41.4c-3.8-7.1-6.4-14.9-7.4-22.9
		c-0.5-3.8-0.6-7.7-0.4-11.6c0.1-1.9,0.3-3.9,0.6-5.8c0.2-1.4,0.9-3.5,0.6-4.8c-0.5-2.5-8.1,1.1-8.3,2.7
		c-2.7,15.6-0.1,31.4,7.8,46.2c11.5,21.6,33.1,38.5,57.9,45.3c8,2.2,16.3,3.3,24.7,3.3c3.9,0,7.8-0.2,11.7-0.7
		c0.2,3.3,0.5,8.5,0.7,13c0.3,5.9,0.6,11,0.8,12.9c2.7,23.4,8.3,46.9,16.8,69.7l1,2.7c4.4,11.9,9,24.2,17.1,34.6
		c4.5,5.6,16.1,18.3,30.5,18.3c0.6,0,1.3,0,1.9-0.1c7.7-0.6,11.2-4.2,12.7-7c3.8-7.3-0.6-17-3.6-22c-18.4-31.4-32.9-71.6-45.6-107.2
		c-2.6-7.3-5.1-14.3-7.6-21c15.5-6,29.6-15.7,40.2-28.4c10.8,0.8,25.2-7.5,30.3-16C541,428,538,413.7,528.5,407.6z M464.6,506.2
		c12.8,35.8,27.4,76.5,46.2,108.5c3.5,6,4.9,11.6,3.4,14.4c-0.8,1.6-2.9,2.6-6.3,2.8c-11.8,0.8-22.6-11.5-25.6-15.3
		c-7.4-9.3-11.7-21.1-15.9-32.4l-1-2.7c-8.3-22.3-13.8-45.1-16.4-67.8c-0.2-1.7-0.5-7.1-0.7-12.4c-0.3-6.2-0.6-10.9-0.8-13.8
		c3.2-0.6,6.3-1.4,9.4-2.3C459.4,491.8,462,498.9,464.6,506.2z M367.3,625.6l-73.4-2.1c-17.7-0.5-37.8-1.1-55.1-10
		c-6.3-3.3-10.7-7-13.5-11.5c-3.8-6.1-4.3-13.5-1.2-19.1c0.8-1.4,1.7-2.6,2.7-3.6c-2-1.8-2.5-2.7-4-5.7c-2.6-5.1-2.1-10.9,1.4-14.6
		c4.6-4.9,12.2-5.1,19-4.6c16.4,1.1,32.7,1.2,48.5,1.3c13.4,0.1,27.2,0.2,41.1,0.9c0,0,0,0,0,0c2.4,2.6,4.7,5.4,7,8.3
		c-16.3-1.1-32.5-1.2-48.2-1.3c-15.9-0.1-32.4-0.2-49-1.3c-1-0.1-2.4-0.2-3.9-0.2c-0.4,3.8,0.2,7.6,1.8,11.1c2.7-0.4,5.4-0.7,8-0.8
		c17.5-0.8,35.3-0.8,52.5-0.9c14.2,0,28.7-0.2,43.1-0.6c1.7,2.5,3.4,5.1,5,7.8c-16.1,0.6-32.4,0.7-48.1,0.7
		c-17.1,0-34.8,0.1-52.1,0.8c-3.5,0.2-7.2,0.5-10.3,1.4c0,9.4,4,19.7,9.9,27.6c14.4,5.5,30.8,6,45.5,6.4l71.7,2
		C366.5,620.4,366.9,623,367.3,625.6z M416.8,469.4c-5.2,0-10.4-1-15.2-3c-1.6-0.7-2.4-2.5-1.7-4.1c0.7-1.6,2.5-2.4,4.1-1.7
		c5.3,2.2,11.1,2.9,16.8,2.3c1.8-0.2,3.3,1,3.5,2.8c0.2,1.7-1,3.3-2.8,3.5C419.9,469.3,418.3,469.4,416.8,469.4z M445.9,437.6
		c-3.9-0.6-7.7-2.7-10.2-5.8c-1.1-1.4-0.9-3.4,0.5-4.5c1.4-1.1,3.4-0.9,4.5,0.5c1.7,2.1,4.3,3.5,7,3.6c2.7,0.1,5.4-0.9,7.3-2.9
		c1.2-1.3,3.2-1.3,4.5,0c1.2,1.2,1.3,3.2,0,4.5c-3.1,3.2-7.7,5-12.2,4.8C446.9,437.7,446.4,437.7,445.9,437.6z M384.6,432.4
		c-0.5,0-1,0-1.5-0.1c-4.6-0.4-9.1-2.8-11.8-6.4c-1.1-1.4-0.8-3.4,0.6-4.4c1.4-1.1,3.4-0.8,4.4,0.6c1.7,2.2,4.5,3.7,7.4,4
		c2.9,0.3,6-0.7,8.1-2.6c1.3-1.2,3.3-1,4.5,0.3c1.2,1.3,1,3.3-0.3,4.5C392.9,430.9,388.7,432.4,384.6,432.4z"/>
	<path fill="#A5C3E0" d="M526,638.5c1.2-1.3,3.4-0.4,3.4,1.4c-0.3,10.8-6.3,19.2-10.2,23.6c-13.9,16.1-45.1,15.4-64.4,4.7
		c-2-1.1-4.7-0.4-5.8,2.3c-1,14.7-11.7,28.3-25.7,32.8c-13.2,4.3-28.6,0.3-38.3-9.6c0.5-0.8,0.9-1.6,1.2-2.4
		c3.9-8.6,1.8-18.9-4.8-24.4c-3.8-3.1-9.1-4.4-14.2-3.3c-5.4,1.1-9.7,4.7-11.2,9.6c1.5,4.8,6.3,4.6,7.9,1.6c0.9-1.7,2.7-2.9,4.9-3.4
		c2.7-0.6,5.7,0.1,7.6,1.7c3.9,3.2,5,9.7,2.6,15.1c-2.2,5-7.2,9.2-13.7,11.5c-10.8,3.9-23.7,1.8-32.8-5.3
		c-8.9-7-15.8-32.4-13.2-40.9c9-4.8,18.3-12.9,24.9-21.3c5.3,0.3,10.2-0.3,15.4,0.7c6.1,1.2,29.7,13.1,45.5,22.3
		c3.4,2,7.7,1.9,11-0.1c14.6-9,20.7-14.4,54.4-24c6.3,7.2,20,14.8,30.1,15.6C514.7,647.5,522.3,642.4,526,638.5z"/>
	<path fill="#C8D7E9" d="M338.7,630.8c-14.3,15.5-26.8,24.1-43.6,24.7c-3.2,4.5-18.2,10.8-23.7,10.1c-4.9-0.6-10.6-6.1-12.9-10.7
		c-0.8-1.6-2.5-2.5-4.3-2.2c-1.8,0.3-3.1,1.8-3.2,3.6c-0.5,5.6-3.5,11-8.2,15c-4.8,4-10.7,5.9-16.2,5.4c-5.5-0.6-11-3.7-14.8-8.5
		c-3.4-4.2-5.2-9.3-5.2-14.3c3.1-1.5,5.8-3.7,7.8-6.3c4.4-5.8,4.9-13.7,1.3-19.4c-3.3-5.2-10.2-7.8-16-5.9c-2.1,0.7-3.2,2.9-2.6,5
		c0.7,2.1,2.9,3.2,5,2.6c2.4-0.7,5.6,0.4,7,2.6c1.8,2.9,1.4,7.2-1,10.3c-2.3,3-6.3,5.1-11,5.7c-11,1.5-22.6-6.6-25.3-17.4
		c-2.8-11.5,4.3-25.8,14.4-29c1.7-0.5,2.6-2.3,2.2-3.9c-3.8-14.8-6.1-28.7,5.8-43.9c9.6-12.3,26.5-20.2,42.9-16.4
		c2.2,0.5,4.5-0.2,6.1-1.7c8.1-7.6,19.2-6.1,26.3-6.1c10.6,0,17.4,6.4,23.1,11.4c0.8,0.7,1.9,1.1,3,1c1.1-0.1,2.1-0.7,2.8-1.6
		c7.3-9.7,21.1-14.3,32.2-10.7c7.3,2.3,12.9,6.8,16.1,12.6c-11.7,6-25.5,8.5-39.2,8.3c-23.1-0.4-50.7-2.8-73.6-0.7
		c-6.5,0.6-12.6,3.8-16.1,9.2c-5.1,8-2.6,15,0.9,19.9c-5.3,12.5,3,29.7,11.8,35.7c12.2,8.3,25.4,12.1,37.7,12.5
		C284.9,628.2,316.4,629.9,338.7,630.8z"/>
	<path fill="#EFA5C4" d="M565.4,66.7c-1.7,12.2-16.3,19.8-27.1,22.8c-7,2-13.6,1.7-20.8,1.3c-3.4-0.2-6.8,0.3-10.3,0.1
		c-4.2-0.3-8.3-0.6-12.5-1.1c-8-1-16-2.5-23.8-4.5c-1.9-0.5-22.9-6.9-22.7-7.4c2.1-5,4-10.1,5.8-15.4c25.4,5,52.7,1.9,76-9.4
		l2.7-1.3c8.8-4.4,17.9-8.9,25.5-5.6C565.2,49.2,566.5,59.1,565.4,66.7z M418.1,131.4c-1.9,2.6-3.9,5.2-5.9,7.8
		c0.1-0.1,11,16.4,11.9,18c3.4,6.5,6.1,13.4,8.1,20.6c4,14.4,5,29.7,3,44.5c-0.8,5.9-3.6,12.2-1.9,18.1c1.7,5.8,9.7,9.1,15.3,8.3
		c8.7-1.4,14.8-9.5,17-16.8c2.2-7.4,2-16.1-0.7-27.5C457.7,173.3,441.9,148.9,418.1,131.4z M393.5,160.3c3,13.5,4.8,28.6,5,43.6
		c0.1,14-3,28-9.2,40.6l-1.1,2.1c-2.5,4.9-4.8,9.5-4.1,13.9c0.6,3.4,3.1,5.4,5.1,6.6c4,2.2,9.1,2.6,13.2,1c6.8-2.7,12.3-9.3,16.9-20
		c14.9-34.8,9.4-74.4-12.6-102C402.7,150.6,398.3,155.3,393.5,160.3z M545.8,100.9c-5.4-1.3-11-1.2-17.1-1.1l-2.8,0.1
		c-30.2,0.5-55.4-3.9-81.1-14.1c-2.3,5.1-4.8,10.1-7.4,15.1c19.9,10.6,39.2,18.2,63.5,25c0.3,0.1,0.6,0.1,0.9,0.2
		c0.1,0.1,0.2,0.1,0.4,0.2c4.5,1.2,9.1,2.4,14,3.6c9.6,2.4,20.6,4.6,30.2,1.2c4.9-1.8,9.4-5.8,11.6-10.5c1.1-2.4,2.1-6,0.7-9.8
		C557,106.2,552.2,102.5,545.8,100.9z M511.5,139.3c-3.6-1.4-7.7-3.1-12.1-5c-25.2-7-45.5-15-66.1-26c-3.2,5.5-6.5,10.9-10.1,16.1
		c0.3-0.4,14.8,12.7,16,13.9c5,5.1,9.5,10.7,13.6,16.5c5.3,7.7,8.7,16.4,13.2,24.5c11.7,20.8,43,43.9,66.6,26.3
		c14.3-10.7,14.6-33.5,5.8-47.2C531.2,147.1,523.3,144,511.5,139.3z"/>
	<path fill="#9DC086" d="M466,611.6l-3.1,11.5c-13.2,4.7-35.4,13-48.5,21.9c-2.7,1.9-6.2,2-9.1,0.5c-9.6-5.1-19.2-9.7-28.8-15
		c-2.6-24.9-17.8-53.9-35-72.6c-1.1-1.2-0.7-3.2,0.8-3.9c16.2-7.5,30.7-17.6,41.9-30.4c17.1,9.4,36.3,14.5,55.8,14.9
		c2.3,10.6,5.5,20.1,8.8,31.5C452.3,582.2,458,599.2,466,611.6z M385.8,62c-8.7,2.6-16.3,7.8-21.3,17.3c-7.2,13.8-5.7,31.2,2.7,44.1
		c3.8,5.8,8.8,10.7,12.4,16.6c2,3.3,3.6,7.1,4.2,10.9c0.4,2.9,3.9,4,6,1.9c25.5-26.4,44.7-57.2,56.4-93c0.9-2.9-1.9-5.5-4.7-4.3
		c-9.6,3.9-24.9,5.4-30.8,4.8C402.1,59.5,393.5,59.7,385.8,62z M285.5,265.3c2.4,13.8-1.3,28.5-9.9,39.5c-12,15.4-32,22.6-51.4,24.1
		c-19.4,1.5-38.9-2-58.3-4.1c-19.4-2.1-38.9,2-57.1,9c-9.7-41.4-2.3-86.6,20-122.8c10.3-16.6,23.9-31.7,41.3-40.5
		c17.4-8.8,39-10.8,56.5-2.2c10.3,5,18.6,14,23.1,24.5c3,7.1,3.5,13.1,2.9,20.6c0,0,0,0,0,0c-45.3,13-87,37.1-115.4,73.8
		c-1.3,1.7,1,3.8,2.5,2.3c32.1-30.8,72.7-52.4,116-63.8c1.9,2.3,4.5,4.3,7.9,6.3c3.8,2.3,7.3,5.8,10.2,9.2
		C279.9,248,284,256.5,285.5,265.3z M354.7,108.9c-37.5,19.8-79,70.1-86.4,116.9c-4-2.4-4.5-2-7.1-6c-1.8-2.7-1.5-8.7,0.5-14.9
		c14.5-43.8,40.6-69.2,47.9-77.1c15.2-16.4,32.6-27.8,45.8-34.9C354.4,98.6,354.1,104,354.7,108.9z M262.4,521.6
		c-14.7-59.7-21.4-123.7-19.6-184.9c5.3-1.5,6.1-1.4,10.9-4.1c-3.5,64.9,2.9,127,18.9,189.7C269.3,521.7,265.8,521.4,262.4,521.6z"
		/>
	<path fill="#E7E2E7" d="M615.6,484.8c-3.8,6-9.4,10.7-15.2,14.9c-26.2,19.2-61.8,32.5-93.8,38.2l-9.1,2.8
		c-7.7-17.1-13.7-35-18.8-52.9c11.2-7,21.1-15.8,29.4-26c24.4-7.1,50.2-11.2,74.7-12.2c6.9-0.3,13.9-0.3,20.5,1.8
		c6.6,2.1,12.7,6.6,15.2,13C621.1,471,619.4,478.7,615.6,484.8z M573.5,585.5c-13-21.6-32.8-33.3-55.8-42.4
		c-6.4,1.2-12.9,2.4-18.7,3.8c4.6,17.9,10.9,34.2,19.1,50.1c13.2,7,28.2,10.3,43.8,10.1c5.3-0.1,11.5-1.1,14.2-5.7
		C579.1,596.5,576.5,590.4,573.5,585.5z"/>
	<path fill="#F4CB64" d="M622.5,292.1c4,10,12,18.3,21,22.8c2.6,1.3,2.3,5-0.4,6c-8.9,3.3-16.5,9.4-21.1,18.3
		c-1.3,2.6-5.1,2.3-6-0.5c-3.4-9.9-10.5-16.8-19.5-20.1c-2.7-1-3.1-4.7-0.6-6c8.2-4.2,16-11.5,20.4-20.7
		C617.6,289.2,621.4,289.3,622.5,292.1z M548,247.1c-3.7,10-12.2,17.8-20.8,21.3c-1.5,0.6-1.4,2.7,0.2,3.1
		c9.6,2.6,17.3,9.7,19.9,20.6c0.4,1.6,2.6,1.8,3.2,0.3c4-9.7,11.9-16,21.3-18.8c1.7-0.5,1.7-2.8,0.1-3.4
		c-9.2-3.8-17.6-12.5-20.7-22.9C550.7,245.6,548.6,245.5,548,247.1z M328.5,472c-3.1,7.4-9.3,13.2-15.8,16.3
		c-1.5,0.7-1.3,2.9,0.3,3.4c7.2,2.3,13,7.9,15.2,16.1c0.4,1.5,2.5,1.6,3.1,0.2c3.3-7.5,9.5-12.5,16.8-14.8c1.6-0.5,1.6-2.6,0.1-3.3
		c-7.2-3.1-13.7-9.8-16.4-17.9C331.3,470.4,329.1,470.5,328.5,472z M291.3,431.7c-3.1,7.2-9.1,12.9-15.4,15.8
		c-1.5,0.7-1.4,3,0.2,3.5c7.1,2.3,12.8,7.8,15,15.8c0.4,1.5,2.5,1.7,3.2,0.2c3.3-7.3,9.3-12.2,16.5-14.5c1.6-0.5,1.7-2.7,0.1-3.4
		c-7-3.1-13.3-9.6-16.1-17.5C294.2,430.1,292,430.1,291.3,431.7z M438.9,533.2c-0.5-2.7-0.9-5.5-1.3-8.5
		c-13.2-1.3-27.7-5.3-44.9-12.4c-1.6,2.5-3.3,4.9-5.2,7.2C403.4,528,421,532.7,438.9,533.2z M333.5,393.8
		c-4,19.5,1.4,42.2,13.2,58.6c1.1,1.5-0.7,3.3-2.2,2.3c-7.1-5-13.6-10.9-17.6-16.6c-20.3-28.6-23.6-73.4-7.7-103.3
		c12.3-23.1,42.4-48.5,69.4-35.2c-8,12.9-12.2,28.2-11.8,44.3c-7.5,15.7-21.9,34.9-38.2,43.1C335.9,388.3,334.1,390.9,333.5,393.8z
		 M553.2,358.9c-14.6-10.6-25.6-25.3-38.2-38.2c-13.9-14.3-30.3-26.6-49.2-33.1c-19.6-6.8-45.2-8.3-63.7,3.2
		c-16.3,10.2-21.6,38-20.6,55.6c16.9,46.5,68.2,67,114.1,71.3c2.4-10.6,14.8-17.9,25.5-16.4c9.7,1.3,18.4,9.7,20.1,19.7
		c2,12.4-2,22.2-12.2,29.8c-0.8,0.6-0.2,1.9,0.8,1.7c12.4-2.9,28.9-7.1,40.1-6.8c16.3-16.9,29.5-43.6,33.1-67.9
		c0.6-4.4-3.2-8.2-7.6-7.4C581.1,373.2,565.4,367.7,553.2,358.9z"/>
</g>
</svg>
