<?xml version="1.0" encoding="utf-8"?>
<!-- Generator: Adobe Illustrator 20.0.0, SVG Export Plug-In . SVG Version: 6.00 Build 0)  -->
<svg version="1.1" id="Layer_1" xmlns="http://www.w3.org/2000/svg" xmlns:xlink="http://www.w3.org/1999/xlink" x="0px" y="0px"
	 viewBox="0 0 595.3 595.3" enable-background="new 0 0 595.3 595.3" xml:space="preserve">
<g>
	<path fill="#F3B31B" d="M241.6,370.8c0-3,2.7-5.2,6.4-5.2c3.6,0,6.4,2.3,6.4,5.2c0,2.9-2.8,5.2-6.4,5.2
		C244.4,376.1,241.6,373.8,241.6,370.8z M516.1,438.2c0.1,5.4-2.2,11.4-5.6,14.4c-0.9,0.8-2.1,1-3.2,0.4c-1.4-0.7-2.4-2.4-2.3-3.8
		c0.1-0.9,0.6-1.5,1.5-1.7c2.4-0.7,4.5-4.7,4.5-8.7c0-6.9-2.6-13.5-7-17.9c-4.7-4.6-11.1-7-19.3-6.8c-19.9,0.2-35.3,13.9-50.1,27
		c-13.7,12.2-26.7,23.7-42.2,23.8c-23.6,0-31.4-18.1-33.6-34.3c-6.5,14.8-14.5,21.9-24.4,21.9c-2.5,0-4.7-0.9-6.3-2.8
		c-7-7.7-4.9-30.1-3.1-49.9c1.2-13.4,2.4-26.1-0.1-28.9c-0.3-0.3-0.6-0.5-1.1-0.5c-18.4,0-22.9,41.4-26.2,71.6
		c-0.6,5.3-1.1,10.3-1.7,14.6c-0.3,2-1.7,3.4-3.9,3.8c-3.3,0.6-7.4-1.1-8.8-3.7c-2.9-5.6-4.3-20.5-5-30.3
		c-8.6,16.1-18.3,24.7-28.1,24.7c-10.5,0-16.6-7.1-17.8-20.7c-14.1,36-25,53.5-33.5,53.5c-3.1,0-5.8-1.3-8-3.9
		c-8.3-9.8-8.3-36.7-4.8-57.5l0.1-0.7c3.6-23.6,7.7-50.3,2.6-56.3c-0.7-0.8-1.4-1.1-2.4-1.1c-6.7,0-15.9,20.1-22.2,38.9
		c-2.7,7.9-9.4,30.3-9.4,32.2l0,0.2c-0.9,3.3-6.8,4.6-11.1,3.5c-3.1-0.8-4.6-2.6-4-5c0.3-1.5,8.3-40.8,9-47.7
		c2.1-22.2,0-34.8-5.9-35.4c-0.1,0-0.2,0-0.3,0c-7.4,0-23.2,18.3-31.4,88.5l0,0.5c0.3,3.4-4.8,5.8-9.7,6.2c-3.7,0.3-6.1-0.6-6.3-2.4
		c-0.4-4.5-0.8-8.6-1.1-12.4c-2.1-24.5-3.1-35.7-7.7-59.3c-3.4-16.9-11.5-26.2-23.1-26.2c-11.6,0-16.9,11.7-16.9,22.7
		c0,10.9,5.3,22.7,16.9,22.7c1,0,1.7,0.2,2.3,0.7c0.5,0.4,0.8,1.1,0.8,1.8c0,1.6-1.3,3.4-3,3.4c-14.8,0-22.8-14.8-22.8-28.8
		c0-7.7,2.4-14.8,6.7-19.9c5-5.9,12.5-9.1,21.5-9.1c16.5,0,28.4,10.8,32.5,29.6c3.6,16.5,5.9,30.8,7.8,49.6
		c6.2-48.6,22.5-74,35.8-74c5.6,0,10.1,1.8,13.3,5.4c7,8,6.9,23.5,5.5,37.5c7.7-19.7,15.4-29.3,23.3-29.3c6.6,0,11.4,1.9,14.6,5.8
		c8.9,10.7,4.4,35.6-0.3,61.9c-2.8,15.1-5,48.6-2.1,52.1c0.1,0.1,0.1,0.1,0.1,0.1c3.5,0,12.5-8.7,34-66.7c1-6.5,2.5-13.6,4.7-21.3
		c0.5-1.8,2.5-2.8,5.9-2.8c3.4,0,7,1.2,8.2,2.7c0.6,0.7,0.6,1.3,0.5,1.7c-0.8,4.2-1.6,8.4-2.4,12.5c-3.5,18-6.8,35-2.6,40.2
		c0.9,1.1,2,1.6,3.5,1.6c6.5,0,16.9-8.3,26.5-31.6c-0.2-5.5-0.2-10.9-0.1-14.7c0.1-3.3,5.9-5.2,10-5.1c3.5,0.1,5.6,1.5,5.6,3.9
		l0,0.5c-0.3,11.5-0.5,21.1-0.4,28.6c0,0.3,0.5,0.4,0.5,0c2-24.7,8.7-62.1,31.6-62.1c4.2,0,7.6,1.4,10,4.3c8.1,9.5,4.3,33,1.2,51.9
		c-1.8,11.2-3.6,21.8-1.5,24c0.2,0.3,0.6,0.4,1,0.4c12.5-0.1,20-22.6,22.5-30.1c0.7-29.7,18.8-50.4,34.5-50.4
		c7.2,0,13.4,5.2,15.4,12.8c3.1,12-3.8,30.5-32.5,46.6c0.1,16.9,1.7,34.8,18,34.8c13.5-0.3,25.6-11,38.5-22.4
		c14.9-13.1,31.7-28,53.3-28.2h0c0.2,0,0.3,0,0.5,0C506.2,409.3,515.8,424.2,516.1,438.2z M403.1,378.4c-1.4-5.1-4.9-8.4-9-8.4
		c-9.2,0-18.8,18-18.8,48.1v2C400.1,405.2,405.8,388.3,403.1,378.4z M357.1,151L357.1,151c-5.5-0.7-11.4-0.2-17.3,1.4
		c11.3,7,32.5,23.4,35.1,49.3c3.9-5.1,6.5-10.7,7.6-16.3C382.8,184.4,374.1,165.6,357.1,151z M355.9,216.8
		c-7.4,3.4-15.1,4.7-22.2,4.1c-10-0.8-18.9-5.4-23.9-13.5c-8.3-13.4-3.4-32,10.7-44.4C328.6,169.1,356.1,191.4,355.9,216.8z
		 M319.1,183.4c-4.2-0.3-8,2.8-8.3,7.1c-0.2,2.1,0.5,4,1.8,5.6c1.3,1.6,3.2,2.5,5.3,2.7c0.2,0,0.4,0,0.6,0c4,0,7.4-3.1,7.7-7.1v0
		C326.5,187.5,323.4,183.8,319.1,183.4z"/>
	<path fill="#5E332D" d="M406.9,273.1c-0.4-0.8-1.5-1.2-2.2-1.4l0,0c-0.5-0.1-1-0.2-1.4-0.2c-0.9,0-1.6,0.5-1.9,1.5
		c-9.5,33.1-24.2,53.6-38.5,53.6c-16.3,0-17.9-17.9-18-34.8c28.7-16.1,35.6-34.6,32.5-46.6c-2-7.7-8.2-12.8-15.4-12.8
		c-15.8,0-33.9,20.8-34.5,50.7c-9.5,27.2-22.7,43.5-35.3,43.5c-16.3,0-17.9-17.9-18-34.8c28.7-16.1,35.6-34.6,32.5-46.6
		c-2-7.7-8.2-12.8-15.4-12.8c-14.9,0-32.2,18.7-34.3,46.6c-5,8.5-12.4,14.8-23.4,19.8c-0.3-2.7-0.7-5.3-1.3-7.9
		c-2-7.4-5.8-13.7-11.3-18.3c7.8-4.7,20.2-14.8,21.2-31.6c0.6-10.5-2.7-20.3-9.1-27.1c-5-5.3-11.4-8.1-18.5-8.1
		c-22.6,0-36.9,36.7-41.3,72.7c-1.9-15.7-4-28.5-7.1-42.8c-4.1-18.8-15.9-29.6-32.5-29.6c-9,0-16.5,3.1-21.5,9.1
		c-4.3,5.1-6.7,12.2-6.7,19.9c0,13.9,8,28.8,22.8,28.8c1.7,0,3-1.8,3-3.4c0-0.7-0.3-1.3-0.8-1.8c-0.5-0.5-1.3-0.7-2.3-0.7
		c-11.6,0-16.9-11.7-16.9-22.7c0-10.9,5.3-22.7,16.9-22.7c11.5,0,19.7,9.3,23.1,26.2c4.6,23.6,5.5,34.8,7.7,59.4
		c0.3,3.8,0.7,7.9,1.1,12.4c0.2,1.8,2.6,2.7,6.3,2.4c4.9-0.4,10-2.8,9.7-6.2c1.6-47.1,14.1-94.6,38.5-94.6c5,0,11.7,13.9,11.7,24.5
		c0,17-6,26.8-11.2,32c-7.9-4.2-16.9-4.9-22.6-1.8c-2.8,1.5-4.5,3.9-4.7,6.7c-0.2,2.1,0.6,3.8,2.2,5c4.2,3,13.9,2.1,23.7-2.1
		c2.9,4.7,4.9,11.2,6,19.3c0.3,2.5,0.6,5.1,0.8,7.7c-3.7,1.1-7.4,2.1-11,3c-16,4.1-29.8,7.7-29.5,20.8c0.2,9.4,9.4,15.5,23.4,15.5
		c18.8,0,29.6-19.6,30.3-38.2c9.9-4.2,17.5-9.4,23.2-15.9c1.1,27.7,13.2,42.9,34.4,42.9c13.1,0,25.4-12.3,36.8-36.7
		c1.8,17.3,9.4,36.7,33.9,36.7c16.4,0,31.2-18.6,45.1-56.9C407.2,274.2,407.2,273.6,406.9,273.1z M344.9,286.8v-2
		c0-30.1,9.6-48.1,18.8-48.1c4.1,0,7.6,3.3,9,8.4C375.4,255,369.7,271.8,344.9,286.8z M274.1,286.8v-2c0-30.1,9.6-48.1,18.8-48.1
		c4.1,0,7.6,3.3,9,8.4C304.7,255,299,271.8,274.1,286.8z M220.4,309.1c0,9.1-2,28.2-17.2,28.4c-6.4,0.1-17.3-2.1-17.5-10.9
		c-0.3-8.4,10.6-11.2,24.3-14.7C213.3,311,216.8,310.1,220.4,309.1z M210.3,272.4c-6.7,4.5-13.7,5.1-17,3.4
		c-0.8-0.4-1.8-1.2-1.8-2.5c0-0.8,1.7-2.7,4.7-3.9c1.1-0.4,2.8-0.9,4.9-0.9C203.9,268.4,207.2,269.3,210.3,272.4z M369.9,207.4
		c-2.4,2.3-5.1,4.4-8.1,6.3c-0.2,0.1-0.4,0.3-0.6,0.4c-1.5-25.8-26.7-47.2-36.3-54.4c0.8-0.5,1.5-1.1,2.4-1.6c2-1.3,4.1-2.4,6.2-3.3
		C342.3,159.7,370,177.3,369.9,207.4z M311.4,167.6c-5.8-0.2-14.9-1.3-21.5-5.5c-4.1-2.7-9.5-10.2-8.9-16.4c0.4-3.5,2.6-6.1,6.9-7.7
		c1.3-0.5,2.7-0.8,4.1-0.9c1.7,4.3,4.3,8.4,7.7,11.9c8.7,8.7,16.5,12,20.8,9c1.9-1.3,3.3-4.2,1.4-8.3c-2.9-6.2-14.1-16.3-26-17.8
		c-1.2-5-0.7-9.7,1.3-12.5c3.6-5,10.9-2.3,14.9-0.2c16.8,8.6,18.3,25.3,17.9,33.2c1.7-0.9,3.5-1.6,5.3-2.2
		c-0.1-9.8-3.2-26.7-20.8-35.7c-13.4-6.9-19.6-1-21.7,1.8c-2.9,4-3.6,9.7-2.5,15.6c-1.5,0.2-3,0.6-4.5,1.1c-7.8,3-9.9,8.3-10.3,12.2
		c-0.8,8.2,5.2,17.5,11.3,21.4c6.4,4.1,14.7,5.7,20.9,6.2C308.9,171,310.1,169.3,311.4,167.6z M317.1,151.8c0.5,1.1,0.4,1.6,0.4,1.7
		c-0.5,0.4-5.2,0.3-14-8.4c-2.3-2.3-4.1-4.9-5.4-7.5C307.1,139.9,315.3,148.1,317.1,151.8z M323.5,191.5c-0.2,2.8-2.6,4.8-5.4,4.6
		c-2.8-0.2-4.8-2.6-4.6-5.4c0.2-2.8,2.6-4.8,5.4-4.6C321.7,186.3,323.8,188.7,323.5,191.5z M381.9,168.3c0.6,1.6,0.9,3.2,0.8,4.5
		c-4.2-7.3-9.4-13.5-13.9-18.3c2.9,1.5,5.7,3.2,8.1,5.5c1.3-0.1,8.1-0.8,8.7,0.1C385.9,161,382.8,166.7,381.9,168.3z"/>
	<path fill="#A97C50" d="M536.9,213.8c-13.4-16.6-33.6-27.8-54-30.1c-4.3-7.6-10-13.9-17.2-18.8c-25.9-17.6-60.9-10.7-62.4-10.4
		c-0.9,0.2-1.6,0.7-2.1,1.4c-0.5,0.7-0.7,1.6-0.5,2.5c0.2,0.9,0.7,1.6,1.4,2.1c0.7,0.5,1.6,0.7,2.5,0.5c0.3-0.1,33.8-6.6,57.4,9.4
		c5.1,3.5,9.4,7.8,12.8,12.9c-5.2,0-10.2,0.7-15,1.9c-19.1,5-31.5,18.8-35.1,38.9c-2.6,14.8,2,27.2,12.5,34.1
		c10.7,7,25.5,6.7,36.8-0.8c14.6-9.7,20.5-28.6,16.3-52c-0.9-5.2-2.3-10.1-4.1-14.5c17.4,3.1,33.9,12.9,45.4,27.1
		c15,18.5,24.8,64.3,6.8,97.1c-14.3,26-42.9,37.4-82.6,32.8c-5.4-0.6-11.5-2-17.9-3.4c-24.3-5.3-54.6-11.9-87.3,8.9
		c-1.5,1-2,3-1,4.5c0.6,1,1.6,1.5,2.8,1.5c0.6,0,1.2-0.2,1.8-0.5c30.5-19.4,59.2-13.1,82.4-8.1c6.6,1.4,12.8,2.8,18.6,3.5
		c53.9,6.2,78.2-16.3,89.2-36.2C562.8,284.8,555.2,236.4,536.9,213.8z M470.6,251.9c-9.1,6.1-21,6.4-29.5,0.8
		c-8.4-5.5-11.8-15.2-9.7-27.5c3.1-17.4,13.8-29.4,30.2-33.7c4.4-1.1,9-1.7,13.8-1.7c1.1,0,2.3,0,3.4,0.1c2.4,4.9,4.1,10.5,5.2,16.6
		C487.7,227.2,482.9,243.7,470.6,251.9z"/>
</g>
</svg>
